<svg width="21" height="21" viewBox="0 0 21 21" fill="none" xmlns="http://www.w3.org/2000/svg">
<path d="M17.2871 6.71962C16.7871 6.94284 16.247 7.09462 15.6666 7.17498C16.2738 6.81784 16.6889 6.29552 16.9121 5.60802C16.3318 5.9473 15.7336 6.17498 15.1175 6.29105C14.5729 5.70177 13.8898 5.40712 13.0684 5.40712C12.2916 5.40712 11.6287 5.68167 11.0796 6.23078C10.5304 6.77989 10.2559 7.44284 10.2559 8.21962C10.2559 8.47855 10.2782 8.69284 10.3229 8.86248C9.17107 8.79998 8.09072 8.5098 7.08179 7.99194C6.07286 7.47409 5.21572 6.78212 4.51036 5.91605C4.25143 6.36248 4.12197 6.83569 4.12197 7.33569C4.12197 8.35355 4.52822 9.1348 5.34072 9.67944C4.92107 9.67052 4.47464 9.55444 4.00143 9.33123V9.35802C4.00143 10.0277 4.22464 10.6236 4.67107 11.146C5.1175 11.6683 5.66661 11.9919 6.31839 12.1169C6.05947 12.1884 5.83179 12.2241 5.63536 12.2241C5.51929 12.2241 5.34518 12.2062 5.11304 12.1705C5.30054 12.733 5.63313 13.1973 6.11081 13.5634C6.58848 13.9294 7.13089 14.1169 7.73804 14.1259C6.70232 14.9294 5.53714 15.3312 4.2425 15.3312C4.01036 15.3312 3.78714 15.3178 3.57286 15.2911C4.89429 16.1303 6.33179 16.55 7.88536 16.55C8.88536 16.55 9.82286 16.3915 10.6979 16.0745C11.5729 15.7576 12.3229 15.3335 12.9479 14.8022C13.5729 14.271 14.1108 13.6594 14.5617 12.9674C15.0126 12.2754 15.3474 11.5522 15.5662 10.7977C15.7849 10.0433 15.8943 9.29105 15.8943 8.54105C15.8943 8.38034 15.8898 8.2598 15.8809 8.17944C16.4434 7.77766 16.9121 7.29105 17.2871 6.71962ZM20.7157 4.12141V16.9786C20.7157 18.0411 20.3385 18.9495 19.584 19.704C18.8296 20.4585 17.9211 20.8357 16.8586 20.8357H4.00143C2.93893 20.8357 2.03045 20.4585 1.27598 19.704C0.521519 18.9495 0.144287 18.0411 0.144287 16.9786V4.12141C0.144287 3.05891 0.521519 2.15042 1.27598 1.39596C2.03045 0.641497 2.93893 0.264265 4.00143 0.264265H16.8586C17.9211 0.264265 18.8296 0.641497 19.584 1.39596C20.3385 2.15042 20.7157 3.05891 20.7157 4.12141Z" fill="#1AABAC"/>
</svg>
